<svg xmlns="http://www.w3.org/2000/svg" viewBox="0 0 1200 630"><defs><linearGradient id="bg" x1="0" y1="0" x2="1" y2="1"><stop stop-color="#07101b"/><stop offset="1" stop-color="#102a40"/></linearGradient><linearGradient id="route" x1="300" y1="0" x2="900" y2="0"><stop stop-color="#326bc0"/><stop offset=".5" stop-color="#f5f8fb"/><stop offset="1" stop-color="#df354a"/></linearGradient></defs><rect width="1200" height="630" fill="url(#bg)"/><g opacity=".12" stroke="#fff"><path d="M0 105h1200M0 210h1200M0 315h1200M0 420h1200M0 525h1200M200 0v630M400 0v630M600 0v630M800 0v630M1000 0v630"/></g><g transform="translate(110 105) scale(3.2)"><path d="M36 4 63 14v19c0 17-11 28.5-27 35C20 61.5 9 50 9 33V14Z" fill="#0b1b2b" stroke="#f5f8fb" stroke-width="2"/><path d="M19 43h34M22 43c2-13 26-13 28 0" fill="none" stroke="#fff" stroke-width="2.7"/><path d="M18 25c4-8 15-9 20-2s-1 14-8 13c-6-1-7-8-2-10" fill="none" stroke="#3971c2" stroke-width="3"/><path d="M54 25c-4-8-15-9-20-2s1 14 8 13c6-1 7-8 2-10" fill="none" stroke="#df354a" stroke-width="3"/></g><text x="400" y="244" fill="#f5f9fc" font-family="Inter,Segoe UI,sans-serif" font-size="76" font-weight="730" letter-spacing="-3">Bonus<tspan fill="#55cfc6">Bridge</tspan></text><text x="405" y="305" fill="#9eb0bf" font-family="Inter,Segoe UI,sans-serif" font-size="24">Une passerelle entre la France et le Canada</text><path d="M405 390h585M430 390c35-120 500-120 535 0" fill="none" stroke="url(#route)" stroke-width="8" stroke-linecap="round"/><circle cx="430" cy="390" r="13" fill="#326bc0" stroke="#fff" stroke-width="4"/><circle cx="965" cy="390" r="13" fill="#df354a" stroke="#fff" stroke-width="4"/><text x="405" y="455" fill="#6488b9" font-family="Inter,Segoe UI,sans-serif" font-size="20" letter-spacing="4">FRANCE</text><text x="850" y="455" fill="#d66672" font-family="Inter,Segoe UI,sans-serif" font-size="20" letter-spacing="4">CANADA</text><text x="405" y="520" fill="#dbe5ec" font-family="Inter,Segoe UI,sans-serif" font-size="28">Votre historique d’assurance traverse les frontières.</text></svg>
