<svg xmlns="http://www.w3.org/2000/svg" viewBox="0 0 1200 630" role="img" aria-labelledby="t"><title id="t">BonusBridge — Take your insurance history with you.</title><defs><radialGradient id="bg" cx="75%" cy="35%" r="70%"><stop stop-color="#103c57"/><stop offset=".45" stop-color="#071525"/><stop offset="1" stop-color="#03070d"/></radialGradient><linearGradient id="g" x1="0" y1="0" x2="1" y2="1"><stop stop-color="#2ee6d5"/><stop offset="1" stop-color="#3f79ff"/></linearGradient></defs><rect width="1200" height="630" fill="url(#bg)"/><g opacity=".14" fill="none" stroke="#73ddec"><ellipse cx="920" cy="315" rx="220" ry="220"/><ellipse cx="920" cy="315" rx="220" ry="75"/><path d="M700 315h440M920 95c-80 75-80 365 0 440M920 95c80 75 80 365 0 440"/></g><path d="M810 372h220M835 372c10-92 46-130 85-130s75 38 85 130M840 372v50m160-50v50" fill="none" stroke="url(#g)" stroke-width="16" stroke-linecap="round"/><text x="80" y="180" fill="#fff" font-family="Inter,Arial,sans-serif" font-size="36" font-weight="750">BonusBridge</text><text x="80" y="295" fill="#fff" font-family="Inter,Arial,sans-serif" font-size="66" font-weight="650">Take your insurance</text><text x="80" y="374" fill="url(#g)" font-family="Inter,Arial,sans-serif" font-size="66" font-weight="650">history with you.</text><text x="80" y="455" fill="#9fb1c3" font-family="Inter,Arial,sans-serif" font-size="25">Worldwide recognition for expatriate drivers.</text></svg>
