<svg xmlns="http://www.w3.org/2000/svg" viewBox="0 0 72 72"><defs><linearGradient id="s" x1="8" y1="8" x2="64" y2="64"><stop stop-color="#2458a6"/><stop offset=".48" stop-color="#f5f8fb"/><stop offset="1" stop-color="#d9293f"/></linearGradient></defs><path d="M36 4 63 14v19c0 17-11 28.5-27 35C20 61.5 9 50 9 33V14Z" fill="#0b1b2b" stroke="url(#s)" stroke-width="3"/><path d="M19 43h34M22 43c2-13 26-13 28 0M24 43v7m24-7v7" fill="none" stroke="#f5f8fb" stroke-width="3" stroke-linecap="round"/><path d="M18 25c4-8 15-9 20-2s-1 14-8 13c-6-1-7-8-2-10" fill="none" stroke="#3574cf" stroke-width="3.2" stroke-linecap="round"/><path d="M54 25c-4-8-15-9-20-2s1 14 8 13c6-1 7-8 2-10" fill="none" stroke="#e43b4f" stroke-width="3.2" stroke-linecap="round"/><path d="m55 12 1.4 3.2 3.5-.4-2.1 2.7 2.1 2.8-3.5-.5L55 23l-1.4-3.2-3.5.5 2.1-2.8-2.1-2.7 3.5.4Z" fill="#e43b4f"/></svg>
