<svg xmlns="http://www.w3.org/2000/svg" viewBox="0 0 380 82" role="img" aria-labelledby="title desc"><title id="title">BonusBridge</title><desc id="desc">Bouclier et pont France Canada, signature Pirez, Jérémy et Julia</desc><g transform="translate(2 4)"><path d="M34 1 64 13v22c0 18-12 31-30 39C16 66 4 53 4 35V13Z" fill="#0b1b2b" stroke="#f2f6fa" stroke-opacity=".72" stroke-width="2.2"/><path d="M14 46h40M17 46c2-15 31-15 34 0" fill="none" stroke="#f5f8fb" stroke-width="2.8" stroke-linecap="round"/><path d="M14 25c5-8 16-9 21-2 5 7-1 14-8 13-6-1-7-8-2-11" fill="none" stroke="#4e83d5" stroke-width="3" stroke-linecap="round"/><path d="M54 25c-5-8-16-9-21-2-5 7 1 14 8 13 6-1 7-8 2-11" fill="none" stroke="#e34858" stroke-width="3" stroke-linecap="round"/></g><text x="80" y="42" fill="#f4f9fc" font-family="Inter,Segoe UI,sans-serif" font-size="31" font-weight="760">BONUS<tspan fill="#55cfc6">BRIDGE</tspan></text><text x="81" y="66" fill="#a8bac8" font-family="Inter,Segoe UI,sans-serif" font-size="9" font-weight="650" letter-spacing="2.15">PIREZ · JÉRÉMY · JULIA</text></svg>
