<svg xmlns="http://www.w3.org/2000/svg" viewBox="0 0 300 64"><g transform="translate(1)"><path d="M31 3 57 13v18c0 16-10 26-26 33C15 57 5 47 5 31V13Z" fill="#0b1b2b" stroke="#f2f6fa" stroke-opacity=".65" stroke-width="2"/><path d="M14 40h34M17 40c2-12 26-12 28 0" fill="none" stroke="#f5f8fb" stroke-width="2.6" stroke-linecap="round"/><path d="M14 23c4-7 14-8 18-2 4 6-1 12-7 11-5-1-6-7-2-9" fill="none" stroke="#4e83d5" stroke-width="2.7" stroke-linecap="round"/><path d="M48 23c-4-7-14-8-18-2-4 6 1 12 7 11 5-1 6-7 2-9" fill="none" stroke="#e34858" stroke-width="2.7" stroke-linecap="round"/><path d="m49 10 1.2 2.8 3-.3-1.8 2.4 1.8 2.4-3-.4-1.2 2.8-1.2-2.8-3 .4 1.8-2.4-1.8-2.4 3 .3Z" fill="#e34858"/></g><text x="72" y="39" fill="#f4f9fc" font-family="Inter,Segoe UI,sans-serif" font-size="27" font-weight="730" letter-spacing="-1">Bonus<tspan fill="#55cfc6">Bridge</tspan></text><text x="73" y="54" fill="#8298aa" font-family="Inter,Segoe UI,sans-serif" font-size="6.5" letter-spacing="2.2">FRANCE · CANADA</text></svg>
