<svg xmlns="http://www.w3.org/2000/svg" viewBox="0 0 260 56"><g transform="translate(1)"><path d="M28 2 50 11v16c0 14-9 23.8-22 30C15 50.8 6 41 6 27V11Z" fill="#e9f7f8" stroke="#087f87" stroke-width="2.5"/><path d="M13 35h30M16 35c2-10 22-10 24 0M19 35v7m18-7v7" fill="none" stroke="#087f87" stroke-width="2.6" stroke-linecap="round"/><path d="M24 14h7a5.5 5.5 0 0 1 0 11h-7Zm0 11h8a5.5 5.5 0 0 1 0 11h-8Z" fill="none" stroke="#07101b" stroke-width="2.6"/></g><text x="66" y="36" fill="#07101b" font-family="Inter,Segoe UI,sans-serif" font-size="25" font-weight="720" letter-spacing="-.8">Bonus<tspan fill="#087f87">Bridge</tspan></text></svg>
