<svg xmlns="http://www.w3.org/2000/svg" viewBox="0 0 64 64"><defs><linearGradient id="g" x1="8" y1="8" x2="56" y2="56"><stop stop-color="#35e5d2"/><stop offset="1" stop-color="#4e7fff"/></linearGradient></defs><path d="M32 3 55 12v17c0 15-9.8 25.7-23 32C18.8 54.7 9 44 9 29V12Z" fill="#0d2132" stroke="url(#g)" stroke-width="3"/><path d="M17 37h30M20 37c2-12 22-12 24 0M22 37v7m20-7v7" fill="none" stroke="url(#g)" stroke-width="3" stroke-linecap="round"/><path d="M27 17h7.5a6 6 0 0 1 0 12H27Zm0 12h9a6 6 0 0 1 0 12h-9Z" fill="none" stroke="#f4fbff" stroke-width="3" stroke-linejoin="round"/></svg>
