<svg xmlns="http://www.w3.org/2000/svg" viewBox="0 0 64 64"><rect width="64" height="64" rx="14" fill="#07101b"/><path d="M32 5 55 14v16c0 15-9.5 24.5-23 30C18.5 54.5 9 45 9 30V14Z" fill="#0b1b2b" stroke="#f4f7fa" stroke-width="2.5"/><path d="M17 39h30M19 39c2-11 24-11 26 0" fill="none" stroke="#fff" stroke-width="2.8" stroke-linecap="round"/><path d="M17 23c4-7 13-7 17-2s-1 11-7 10c-4-1-5-6-2-8" fill="none" stroke="#3971c2" stroke-width="3" stroke-linecap="round"/><path d="M47 23c-4-7-13-7-17-2s1 11 7 10c4-1 5-6 2-8" fill="none" stroke="#df354a" stroke-width="3" stroke-linecap="round"/><path d="m49 10 1 2.5 2.8-.3-1.7 2.2 1.7 2.3-2.8-.4-1 2.5-1-2.5-2.8.4 1.7-2.3-1.7-2.2 2.8.3Z" fill="#df354a"/></svg>
